Patient4_TMGait_0pt4_01_right_01_EMG.mot
version=1
nRows=16
nColumns=33
inDegrees=no
endheader
time	1LAddLong	2LGlutMax	3LGlutMed	4LIliopsoas	5LSemiMemb	6LBicFemLong	7LRecFem	8LVastMed	9LVastLat	10LGasMed	11LTibAnt	12lTibPost	13LPeroneusLong	14LSol	15LExtDigLong	16LFlexDigLong	17RAddLong	18RGlutMax	19RGlutMed	20RIliopsoas	21RSemiMemb	22RBicFemLong	23RRecFem	24RVastMed	25RVastLat	26RGasMed	27RTibAnt	28RTibPost	29RPeroneusLong	30RSol	31RExtDigLong	32RFlexDigLong
2.153	0.010834	0.054626	0.032501	0.000458	-0.1471	-0.010529	0.072784	0.00946	0.014038	-0.043335	0.030365	0.000763	0.025177	-0.005798	0.005646	-0.000153	0.00351	-0.080566	0.073395	0.056152	0.033722	0.099945	-0.036926	-0.004883	0.02243	-0.037537	0.075989	-0.003815	0.11887	-0.033417	-0.001221	0.005798
2.154	0.015717	0.076752	-0.048828	0.003052	-0.038757	-0.058289	0.035858	0.012817	-0.027771	-0.056305	0.052643	-0.002289	-0.25024	-0.086975	-0.10239	-0.000153	0.00412	0.053558	0.25665	-0.037689	-0.012512	0.10452	-0.006256	-0.010223	-0.002136	-0.044403	0.08194	-0.00885	-0.1004	-0.027466	-0.000916	0.001678
2.155	0.013885	0.09079	-0.081787	-0.006409	0.12451	-0.026855	0.005798	0.017242	-0.059509	0.017548	0.059204	-0.000916	-0.22553	-0.031891	-0.026703	0.007477	-0.003204	0.061798	-0.11948	-0.060272	-0.049744	0.080719	-0.001221	-0.014191	-0.000916	-0.041656	0.080261	-0.002136	-0.14053	-0.018463	-0.001526	-0.000153
2.156	0.018158	0.074158	-0.023651	0.003357	0.097046	-0.003357	-0.025024	0.016479	-0.032043	0.093689	-0.036469	-0.00946	0.03952	-0.17563	0.023346	0.012665	0.008698	0.019989	-0.53101	-0.13306	-0.085449	0.072937	-0.019531	-0.029755	0.001373	-0.03067	0.028076	-0.008698	0.019531	-0.012054	-0.007935	-0.001373
2.157	0.015411	0.11307	-0.032349	0.014191	0.058899	0.044403	0.011902	-0.005341	0.025177	0.14679	-0.067139	0.000458	0.15518	-0.18738	0.033112	0.01236	-0.000153	0.093079	-0.36911	-0.1619	-0.103	0.097961	-0.03891	-0.021667	0.006714	-0.046387	-0.015259	-0.002747	0.1741	-0.041351	-0.00061	-0.006714
2.158	0.011292	0.10452	0.02594	0.009918	0.032959	0.029449	0.038452	0.002747	-0.003662	0.20813	-0.037384	0.007477	0.23926	-0.35919	0.057373	-0.007629	-0.000916	0.04364	-0.049591	-0.13077	-0.030365	0.090942	-0.011597	-0.003662	0.028381	-0.043793	0.016327	-0.002899	-0.055695	-0.053253	-0.003204	0.001984
2.159	0.006409	0.10391	0.021515	0.008545	0.019531	0.040131	0.006104	0.010223	0.13702	0.15335	-0.010681	0.005646	0.42358	-0.46661	0.10819	-0.020752	0.003815	0.011139	0.24124	-0.030975	-0.028687	0.071411	0.030212	-0.059204	0.008698	-0.049591	0.039978	-0.002899	-0.54794	-0.030518	-0.002441	-0.001526
2.16	0.009003	0.13092	0.011749	0.009766	0.016479	0.006256	-0.030365	-0.006561	0.26108	0.07309	0.00885	0.010681	0.018768	-0.38483	0.075836	0.003662	0.000916	-0.045776	0.3656	0.045013	0.071564	0.093536	-0.025177	-0.013885	0.006409	-0.032806	0.050964	-0.001068	-0.78476	-0.045013	-0.00061	-0.010986
2.161	0.018921	0.096588	-0.02655	-0.010223	0.010681	-0.00824	0.019989	0.000305	0.099335	0.030518	0.016174	0.010529	0.078735	-0.32074	0.074615	0.001831	0.00885	-0.006561	0.55908	0.09079	0.058899	0.09613	-0.063629	-0.015717	0.01709	-0.01236	0.013733	-0.007629	-0.13687	-0.061646	-0.001526	-0.003967
2.162	-0.001831	0.085754	-0.042877	0.006409	-0.008545	0.020599	0.027161	0.008698	0.030365	0.031433	0.016174	0.013885	0.56519	-0.23438	0.030823	0.000763	0.013275	-0.047302	-0.049286	0.15167	0.033875	0.20615	-0.041656	0.000458	0.022736	-0.011597	0.009613	-0.007019	0.61844	-0.073242	0.001373	-0.001373
2.163	-0.007629	0.080566	-0.000458	-0.000916	-0.016785	0.002899	0.020905	0.015106	-0.00473	0.022125	0.017548	0.003357	0.51453	-0.011597	0.081635	-0.006409	0.014191	-0.10574	-0.40115	0.13016	-0.12421	0.30731	-0.06012	-0.018768	0.010834	-0.024109	0.059967	-0.00885	0.69687	-0.026855	-0.001221	-0.000153
2.164	-0.013885	0.12054	-0.018463	-0.019836	-0.030518	-0.00946	0.056152	0.014038	-0.03418	-0.011139	0.00885	0.007019	0.17929	0.092773	0.1236	0.008698	0.01709	-0.014343	-0.41992	0.1265	-0.16846	0.1796	-0.050812	-0.066528	0.013123	-0.028229	0.14267	-0.008545	0.26459	0.006256	-0.000305	0.010529
2.165	-0.013885	0.11841	-0.055695	-0.003662	-0.061493	0.033875	0.033112	0.007629	-0.028076	-0.055237	-0.014343	0.006866	-0.69076	0.25543	0.019073	-0.006866	0.029297	-0.027924	-0.18448	0.059662	-0.035095	0.07309	-0.030212	-0.045929	0.012665	-0.025177	0.13748	-0.010529	0.18143	-0.018616	-0.000153	0.009155
2.166	0.00061	0.051117	-0.03418	0.002747	-0.12634	0.015717	0.00885	0.01297	0.029755	0.005341	0.023804	-0.002441	-0.52856	0.22797	0.076599	-0.007935	0.050201	-0.041504	0.28625	-0.003204	-0.065918	-0.01358	-0.031433	-0.041351	0.021515	-0.02243	0.12695	-0.008698	0.10269	-0.031128	0.001831	0.01297
2.167	-0.003204	0.049896	-0.041656	0.015411	-0.098572	0.060425	0.00885	0.014038	0.15503	0.015411	0.027008	0.005188	-0.14557	0.19272	0.033112	-0.011139	0.057831	-0.035553	0.25528	-0.012054	0.011139	-0.025635	-0.049133	-0.066681	0.03479	-0.026855	0.082703	-0.00412	-0.036011	-0.035706	-0.002136	0.00885
2.168	-0.003967	0.082855	-0.053711	0.009003	-0.043945	0.037079	0.013275	0.004272	0.094604	0.013885	0.017548	0.002899	0.036011	0.093079	-0.10071	-0.005798	0.021973	-0.018005	0.067902	-0.025482	0.25452	0.079956	-0.10056	-0.014191	0.051117	-0.019226	-0.054321	-0.009003	0.19196	-0.025024	-0.003357	0.003357
